<svg width="333" height="305" viewBox="0 0 333 305" fill="none" xmlns="http://www.w3.org/2000/svg">
<path d="M8.40945 10.2117C8.40945 4.68882 12.8866 0.21167 18.4095 0.21167H311.514C317.037 0.21167 321.514 4.68882 321.514 10.2117V43.7477C321.514 49.2705 317.037 53.7477 311.514 53.7477H18.4094C12.8866 53.7477 8.40945 49.2705 8.40945 43.7477V10.2117Z" fill="#00E0D2"/>
<path d="M6.55719 294.551C1.7718 292.222 -0.350265 286.552 1.7295 281.653L88.7489 76.6654C89.2193 75.5573 90.3066 74.8377 91.5104 74.8377L126.886 74.8376C129.029 74.8376 130.481 77.0182 129.654 78.9947L38.0469 298.125C35.8303 303.428 29.6108 305.775 24.4435 303.259L6.55719 294.551Z" fill="#00E0D2"/>
<path d="M326.796 294.551C331.581 292.222 333.703 286.552 331.624 281.653L244.604 76.6654C244.134 75.5573 243.047 74.8377 241.843 74.8377L206.467 74.8376C204.324 74.8376 202.873 77.0182 203.699 78.9947L295.306 298.125C297.523 303.428 303.742 305.775 308.91 303.259L326.796 294.551Z" fill="#00E0D2"/>
<path d="M226.256 192.58C226.136 192.266 225.939 191.988 225.684 191.77L204.902 174.086C204.182 173.474 203.133 173.449 202.385 174.025L187.833 185.246C186.819 186.027 186.791 187.547 187.774 188.366L235.951 228.504C237.533 229.822 239.834 228.178 239.1 226.255L226.256 192.58Z" fill="#00E0D2"/>
<path d="M92.2069 226.846C91.4405 228.75 93.6973 230.435 95.3054 229.159L203.584 143.245C204.301 142.676 204.54 141.693 204.165 140.859L195.252 121.023C194.726 119.854 193.252 119.474 192.227 120.244L165.732 140.142C164.995 140.696 163.974 140.673 163.262 140.088L139.326 120.422C138.3 119.58 136.753 119.952 136.223 121.169L127.611 140.936C127.263 141.735 127.472 142.667 128.128 143.241L142.328 155.656C143.262 156.472 143.235 157.933 142.272 158.715L109.057 185.655C108.793 185.869 108.588 186.146 108.461 186.461L92.2069 226.846Z" fill="#00E0D2"/>
</svg>
